<svg xmlns="http://www.w3.org/2000/svg" width="27" height="26" viewBox="3 3 27 26"><g data-name="グループ 139"><path d="M22.586 26.599a.413.413 0 0 1-.409.414H5.367a.414.414 0 0 1-.409-.414V5.403a.414.414 0 0 1 .409-.416h16.81a.413.413 0 0 1 .409.416v5.987l1.958-1.987v-4C24.543 4.076 23.486 3 22.177 3H5.367C4.059 3.001 3 4.076 3 5.403v21.196c.001 1.326 1.06 2.4 2.367 2.401h16.81c1.31-.001 2.366-.225 2.367-1.552v-7.5l-1.958 1.988v4.663Z" fill="#ff963c" fill-rule="evenodd" data-name="パス 45"/><path d="M9.366 20.863h5.47v1.492h-5.47v-1.492z" fill="#ff963c" fill-rule="evenodd" data-name="長方形 14"/><path d="M9.347 15.398H18.3v1.492H9.347v-1.492z" fill="#ff963c" fill-rule="evenodd" data-name="長方形 13"/><path d="M9.347 9.934H18.3v1.492H9.347V9.934z" fill="#ff963c" fill-rule="evenodd" data-name="長方形 12"/><path d="M16.76 19.287v3.17h3.17l7.827-7.828-3.17-3.17-7.827 7.828Z" fill="#ff963c" fill-rule="evenodd" data-name="パス 44"/><path d="m29.55 10.665-.993-.99a1.54 1.54 0 0 0-2.177 0l-.928.928 3.17 3.168.927-.927c.601-.602.601-1.577 0-2.179Z" fill="#ff963c" fill-rule="evenodd" data-name="パス 43"/></g></svg>