<svg xmlns="http://www.w3.org/2000/svg" width="23" height="30" viewBox="4.5 1 23 30"><g data-name="グループ 25"><path d="m24.554 21.637-.823-1.769-.003.003-.006-.013a12.338 12.338 0 0 1-5.932 2.877c-.158.029-.314.06-.474.082v.003l-.013.004 3.673 7.87a.524.524 0 0 0 .477.306c.215 0 .401-.13.487-.325l1.385-3.314 3.435 1.065.08.024h.073c.18 0 .343-.091.443-.244l.144-.267-2.946-6.302Z" fill="#ff963c" fill-rule="evenodd" data-name="パス 42"/><path d="M8.737 20.241c-.153-.123-.307-.246-.455-.377l-.001.003-.012-.01-3.664 7.847-.105.282.139.22c.1.153.262.244.444.244h.085l3.502-1.09 1.385 3.315a.526.526 0 0 0 .964.019l2.834-6.068.837-1.783-.003-.002.006-.014a12.33 12.33 0 0 1-5.956-2.586Z" fill="#ff963c" fill-rule="evenodd" data-name="パス 41"/><path d="M26.112 11.573c0-2.917-1.133-5.567-2.96-7.478a10.084 10.084 0 0 0-3.518-2.391A9.686 9.686 0 0 0 16 1a9.69 9.69 0 0 0-3.663.716 10.083 10.083 0 0 0-3.49 2.38c-1.827 1.91-2.96 4.56-2.96 7.477 0 2.915 1.133 5.563 2.96 7.473 1.828 1.913 4.363 3.098 7.153 3.098 2.788 0 5.323-1.185 7.15-3.098 1.828-1.91 2.961-4.558 2.961-7.473Zm-10.111 8.604c-2.277 0-4.328-.96-5.822-2.52-1.49-1.561-2.41-3.705-2.41-6.084 0-2.38.92-4.527 2.41-6.085A8.171 8.171 0 0 1 13.72 3.3a7.984 7.984 0 0 1 4.532-.007 8.153 8.153 0 0 1 3.57 2.194c1.49 1.558 2.41 3.705 2.41 6.085s-.92 4.523-2.41 6.084c-1.494 1.56-3.544 2.52-5.82 2.52Z" fill="#ff963c" fill-rule="evenodd" data-name="パス 40"/><path d="m19.373 10.14-2.331-.338L16 7.69l-1.042 2.112-2.33.338 1.686 1.644-.398 2.32L16 13.01l2.084 1.096-.398-2.32 1.687-1.645Z" fill="#ff963c" fill-rule="evenodd" data-name="パス 39"/><path d="m20.742 8.025.811-.555a6.97 6.97 0 0 0-1.944-1.898l-.537.824a5.976 5.976 0 0 1 1.67 1.63Z" fill="#ff963c" fill-rule="evenodd" data-name="パス 38"/><path d="m19.173 16.041.555.812a6.967 6.967 0 0 0 1.901-1.94l-.822-.538a5.997 5.997 0 0 1-1.634 1.666Z" fill="#ff963c" fill-rule="evenodd" data-name="パス 37"/><path d="m22.562 9.837-.005-.024-.963.204.005.021a5.972 5.972 0 0 1 .022 2.333l.967.183a6.927 6.927 0 0 0-.026-2.717Z" fill="#ff963c" fill-rule="evenodd" data-name="パス 36"/><path d="M17.215 16.89a5.983 5.983 0 0 1-2.328.024l-.183.967a6.957 6.957 0 0 0 2.71-.027l.007-.002-.2-.962h-.006Z" fill="#ff963c" fill-rule="evenodd" data-name="パス 35"/><path d="M10.274 11.243c0-.372.035-.74.102-1.098l-.966-.181a6.87 6.87 0 0 0 .028 2.704l.003.012.963-.201-.003-.01a5.991 5.991 0 0 1-.127-1.226Z" fill="#ff963c" fill-rule="evenodd" data-name="パス 34"/><path d="m12.818 6.467-.556-.81a6.966 6.966 0 0 0-1.898 1.941l.824.538a5.975 5.975 0 0 1 1.63-1.669Z" fill="#ff963c" fill-rule="evenodd" data-name="パス 33"/><path d="M14.786 5.715a5.982 5.982 0 0 1 2.317-.026l.182-.966a6.959 6.959 0 0 0-2.7.028l-.018.005.203.961.016-.002Z" fill="#ff963c" fill-rule="evenodd" data-name="パス 32"/><path d="m11.252 14.468-.812.555a6.956 6.956 0 0 0 1.94 1.9l.539-.823a5.987 5.987 0 0 1-1.667-1.632Z" fill="#ff963c" fill-rule="evenodd" data-name="パス 31"/></g></svg>