<svg xmlns="http://www.w3.org/2000/svg" width="109" height="40" viewBox="16 16 109 40"><g data-name="グループ 138"><path d="m121.449 21.372-3.678 8.263-3.663-8.263h-3.548l5.433 12.257-7.633 17.146-13.359-11.34-79 .006v3.137l77.774.001L109.533 56 125 21.372h-3.551Z" fill="#ff963c" fill-rule="evenodd" data-name="パス 87"/><path d="M86.842 30.491c0 3.389 1.928 5.07 4.876 4.96a7.509 7.509 0 0 0 2.783-.58l-.937-2.864c-.496.248-1.102.413-1.626.413-1.047 0-1.763-.634-1.763-1.929v-5.868h3.775V21.73h-3.747v-3.312h-3.361v3.312h-2.535v2.893h2.535v5.868Z" fill="#ff963c" fill-rule="evenodd" data-name="パス 86"/><path d="M98.618 28.342c0-2.038 1.377-3.719 3.36-3.719 1.792 0 3.086 1.047 3.086 3.527v7.135h3.362v-7.163c0-3.995-1.708-6.612-5.566-6.612-1.542 0-3.03.468-4.242 2.039V16h-3.361v19.285h3.36v-6.943Z" fill="#ff963c" fill-rule="evenodd" data-name="パス 85"/><path d="M79.032 16.028h3.334v19.257h-3.334V16.028z" fill="#ff963c" fill-rule="evenodd" data-name="長方形 45"/><path d="M68.896 35.698c1.515-.027 3.636-.799 4.408-2.397l.165 1.984h3.168V21.703h-3.223l-.11 1.873c-.772-1.35-2.507-2.204-4.326-2.204-3.967-.027-7.08 2.425-7.08 7.108 0 4.766 2.975 7.246 6.998 7.218Zm.385-11.323c5.29 0 5.29 8.238 0 8.238-2.231 0-4.022-1.543-4.022-4.133s1.79-4.105 4.022-4.105Z" fill="#ff963c" fill-rule="evenodd" data-name="パス 84"/><path d="M53.693 35.643c2.066 0 4.408-.716 5.84-2.204l-2.149-2.121c-.77.799-2.396 1.267-3.636 1.267-2.37 0-3.83-1.212-4.05-2.893h10.607c.523-5.592-2.314-8.402-6.86-8.402-4.408 0-7.218 2.975-7.218 7.107 0 4.353 2.782 7.246 7.466 7.246Zm-.138-11.378c1.929 0 3.306.882 3.526 2.645h-7.328c.496-1.763 1.984-2.645 3.802-2.645Z" fill="#ff963c" fill-rule="evenodd" data-name="パス 83"/><path d="M31.865 27.516h9.477v7.797h3.609V16.028h-3.609v8.127h-9.477v-8.127h-3.637v19.285h3.637v-7.797Z" fill="#ff963c" fill-rule="evenodd" data-name="パス 82"/></g></svg>